# xmcd CD database file
#
# Track frame offsets:
#	150
#	17837
#	31806
#	49043
#	67275
#	84131
#	101596
#	117873
#	133138
#	146862
#	161820
#	174423
#	188667
#
# Disc length: 2803 seconds
#
# Revision: 0
# Processed by: cddbd v1.5.1PL2 Copyright (c) Steve Scherf et al.
# Submitted via: CDex 1.51
#
DISCID=b10af10d
DTITLE=Lee Kernaghan - The New Bush
DYEAR=2006
DGENRE=Country
TTITLE0=Where I Come From
TTITLE1=Listen To The Radio
TTITLE2=The New Bush
TTITLE3=Diamantina Dream
TTITLE4=Love Shack
TTITLE5=Western World
TTITLE6=I'll Remember You
TTITLE7=Livin' In Australia
TTITLE8=Little Men
TTITLE9=Like Angels
TTITLE10=On The Beach
TTITLE11=When Country Comes
TTITLE12=Close As A Whisper (The Gift)
EXTD=YEAR: 2006
EXTT0=
EXTT1=
EXTT2=
EXTT3=
EXTT4=
EXTT5=
EXTT6=
EXTT7=
EXTT8=
EXTT9=
EXTT10=
EXTT11=
EXTT12=
PLAYORDER=
